<svg xmlns="http://www.w3.org/2000/svg" width="560" height="300" viewBox="0 0 560 300" role="img">
<title>Currently building Spotify Atlas</title>
<defs>
  <linearGradient id="bg" x1="0" y1="0" x2="1" y2="1">
    <stop offset="0%" stop-color="#0d1117"/>
    <stop offset="100%" stop-color="#111827"/>
  </linearGradient>
  <linearGradient id="blueGlow" x1="0" y1="0" x2="1" y2="1">
    <stop offset="0%" stop-color="#8aa4ff"/>
    <stop offset="100%" stop-color="#5470d8"/>
  </linearGradient>
  <linearGradient id="purpleGlow" x1="0" y1="0" x2="1" y2="1">
    <stop offset="0%" stop-color="#b5b9ff"/>
    <stop offset="100%" stop-color="#7487e8"/>
  </linearGradient>
  <filter id="softGlow" x="-50%" y="-50%" width="200%" height="200%">
    <feGaussianBlur stdDeviation="5" result="blur"/>
    <feMerge><feMergeNode in="blur"/><feMergeNode in="SourceGraphic"/></feMerge>
  </filter>
  <filter id="tinyGlow" x="-50%" y="-50%" width="200%" height="200%">
    <feGaussianBlur stdDeviation="2" result="blur"/>
    <feMerge><feMergeNode in="blur"/><feMergeNode in="SourceGraphic"/></feMerge>
  </filter>
  <pattern id="grid" width="24" height="24" patternUnits="userSpaceOnUse">
    <path d="M 24 0 L 0 0 0 24" fill="none" stroke="#233044" stroke-width="1" opacity="0.38"/>
  </pattern>
</defs>
<rect width="560" height="300" rx="18" fill="url(#bg)"/>
<rect x="1" y="1" width="558" height="298" rx="17" fill="none" stroke="#334155" stroke-width="2"/>
<rect width="560" height="300" rx="18" fill="url(#grid)" opacity="0.28"/>
<text x="28" y="35" fill="#8aa4ff" font-family="ui-monospace, SFMono-Regular, Menlo, Consolas, monospace" font-size="13" font-weight="700" text-anchor="start" letter-spacing="1.1">⚡ CURRENTLY BUILDING</text>
<path d="M28 50 H532" stroke="#30363d"/>
<circle cx="50" cy="91" r="20" fill="#1ed760"/>
<path d="M38 84 C49 79 61 82 68 87 M39 91 C49 87 59 89 66 94 M41 98 C49 95 57 96 62 100" fill="none" stroke="#0d1117" stroke-width="3" stroke-linecap="round"/>
<text x="84" y="96" fill="#f0f6fc" font-family="ui-monospace, SFMono-Regular, Menlo, Consolas, monospace" font-size="27" font-weight="700" text-anchor="start" letter-spacing="0">Spotify Atlas</text>
<text x="84" y="119" fill="#1ed760" font-family="ui-monospace, SFMono-Regular, Menlo, Consolas, monospace" font-size="11" font-weight="700" text-anchor="start" letter-spacing="1.3">MUSIC INTELLIGENCE PLATFORM</text>
<text x="29" y="159" fill="#c9d1d9" font-family="ui-monospace, SFMono-Regular, Menlo, Consolas, monospace" font-size="15" font-weight="400" text-anchor="start" letter-spacing="0">Semantic embeddings + clustering turn years of</text>
<text x="29" y="183" fill="#c9d1d9" font-family="ui-monospace, SFMono-Regular, Menlo, Consolas, monospace" font-size="15" font-weight="400" text-anchor="start" letter-spacing="0">Spotify history into interactive cultural and</text>
<text x="29" y="207" fill="#c9d1d9" font-family="ui-monospace, SFMono-Regular, Menlo, Consolas, monospace" font-size="15" font-weight="400" text-anchor="start" letter-spacing="0">emotional communities.</text>
<rect x="30" y="231" width="104" height="48" rx="8" fill="#0a1020" stroke="#2d3c57" stroke-width="1" opacity="1"/>
<text x="42" y="251" fill="#8aa4ff" font-family="ui-monospace, SFMono-Regular, Menlo, Consolas, monospace" font-size="16" font-weight="700" text-anchor="start" letter-spacing="0">9,892</text>
<text x="42" y="270" fill="#7d8aaa" font-family="ui-monospace, SFMono-Regular, Menlo, Consolas, monospace" font-size="9" font-weight="700" text-anchor="start" letter-spacing="1">TRACKS</text>
<rect x="148" y="231" width="104" height="48" rx="8" fill="#0a1020" stroke="#2d3c57" stroke-width="1" opacity="1"/>
<text x="160" y="251" fill="#8aa4ff" font-family="ui-monospace, SFMono-Regular, Menlo, Consolas, monospace" font-size="16" font-weight="700" text-anchor="start" letter-spacing="0">171</text>
<text x="160" y="270" fill="#7d8aaa" font-family="ui-monospace, SFMono-Regular, Menlo, Consolas, monospace" font-size="9" font-weight="700" text-anchor="start" letter-spacing="1">SCENE</text>
<rect x="266" y="231" width="104" height="48" rx="8" fill="#0a1020" stroke="#2d3c57" stroke-width="1" opacity="1"/>
<text x="278" y="251" fill="#8aa4ff" font-family="ui-monospace, SFMono-Regular, Menlo, Consolas, monospace" font-size="16" font-weight="700" text-anchor="start" letter-spacing="0">102</text>
<text x="278" y="270" fill="#7d8aaa" font-family="ui-monospace, SFMono-Regular, Menlo, Consolas, monospace" font-size="9" font-weight="700" text-anchor="start" letter-spacing="1">VIBE</text>
<circle cx="461" cy="212" r="61" fill="#0a1020" stroke="#334a7a"/>
<circle cx="461" cy="212" r="49" fill="none" stroke="#8aa4ff" opacity="0.25"/>
<circle cx="461" cy="212" r="35" fill="none" stroke="#8aa4ff" opacity="0.35"/>
<circle cx="461" cy="212" r="20" fill="none" stroke="#8aa4ff" opacity="0.45"/>
<circle cx="481.0" cy="212.0" r="2" fill="#1ed760" filter="url(#tinyGlow)"/>
<circle cx="492.9" cy="223.6" r="3" fill="#8aa4ff" filter="url(#tinyGlow)"/>
<circle cx="497.8" cy="242.9" r="2" fill="#8aa4ff" filter="url(#tinyGlow)"/>
<circle cx="471.0" cy="229.3" r="3" fill="#8aa4ff" filter="url(#tinyGlow)"/>
<circle cx="466.9" cy="245.5" r="2" fill="#8aa4ff" filter="url(#tinyGlow)"/>
<circle cx="452.7" cy="259.3" r="3" fill="#1ed760" filter="url(#tinyGlow)"/>
<circle cx="451.0" cy="229.3" r="2" fill="#8aa4ff" filter="url(#tinyGlow)"/>
<circle cx="435.0" cy="233.9" r="3" fill="#8aa4ff" filter="url(#tinyGlow)"/>
<circle cx="415.9" cy="228.4" r="2" fill="#8aa4ff" filter="url(#tinyGlow)"/>
<circle cx="441.0" cy="212.0" r="3" fill="#8aa4ff" filter="url(#tinyGlow)"/>
<circle cx="429.1" cy="200.4" r="2" fill="#1ed760" filter="url(#tinyGlow)"/>
<circle cx="424.2" cy="181.1" r="3" fill="#8aa4ff" filter="url(#tinyGlow)"/>
<circle cx="451.0" cy="194.7" r="2" fill="#8aa4ff" filter="url(#tinyGlow)"/>
<circle cx="455.1" cy="178.5" r="3" fill="#8aa4ff" filter="url(#tinyGlow)"/>
<circle cx="469.3" cy="164.7" r="2" fill="#8aa4ff" filter="url(#tinyGlow)"/>
<circle cx="471.0" cy="194.7" r="3" fill="#1ed760" filter="url(#tinyGlow)"/>
<circle cx="487.0" cy="190.1" r="2" fill="#8aa4ff" filter="url(#tinyGlow)"/>
<circle cx="506.1" cy="195.6" r="3" fill="#8aa4ff" filter="url(#tinyGlow)"/>
</svg>