<svg xmlns="http://www.w3.org/2000/svg" width="570" height="300" viewBox="0 0 570 300" role="img">
<title>CoreAI Market Flare</title>
<defs>
  <linearGradient id="bg" x1="0" y1="0" x2="1" y2="1">
    <stop offset="0%" stop-color="#0d1117"/>
    <stop offset="100%" stop-color="#111827"/>
  </linearGradient>
  <linearGradient id="blueGlow" x1="0" y1="0" x2="1" y2="1">
    <stop offset="0%" stop-color="#8aa4ff"/>
    <stop offset="100%" stop-color="#5470d8"/>
  </linearGradient>
  <linearGradient id="purpleGlow" x1="0" y1="0" x2="1" y2="1">
    <stop offset="0%" stop-color="#b5b9ff"/>
    <stop offset="100%" stop-color="#7487e8"/>
  </linearGradient>
  <filter id="softGlow" x="-50%" y="-50%" width="200%" height="200%">
    <feGaussianBlur stdDeviation="5" result="blur"/>
    <feMerge><feMergeNode in="blur"/><feMergeNode in="SourceGraphic"/></feMerge>
  </filter>
  <filter id="tinyGlow" x="-50%" y="-50%" width="200%" height="200%">
    <feGaussianBlur stdDeviation="2" result="blur"/>
    <feMerge><feMergeNode in="blur"/><feMergeNode in="SourceGraphic"/></feMerge>
  </filter>
  <pattern id="grid" width="24" height="24" patternUnits="userSpaceOnUse">
    <path d="M 24 0 L 0 0 0 24" fill="none" stroke="#233044" stroke-width="1" opacity="0.38"/>
  </pattern>
</defs>
<rect width="570" height="300" rx="18" fill="url(#bg)"/>
<rect x="1" y="1" width="568" height="298" rx="17" fill="none" stroke="#334155" stroke-width="2"/>
<rect width="570" height="300" rx="18" fill="url(#grid)" opacity="0.22"/>
<text x="26" y="31" fill="#8aa4ff" font-family="ui-monospace, SFMono-Regular, Menlo, Consolas, monospace" font-size="11" font-weight="700" text-anchor="start" letter-spacing="1">PROJECT 02</text>
<text x="544" y="31" fill="#6e7681" font-family="ui-monospace, SFMono-Regular, Menlo, Consolas, monospace" font-size="10" font-weight="700" text-anchor="end" letter-spacing="1">1ST PLACE</text>
<path d="M26 45 H544" stroke="#30363d"/>
<rect x="316" y="66" width="228" height="138" rx="12" fill="#0a1020" stroke="#2d3c57" stroke-width="1" opacity="1"/>
<polygon points="343,165 431,115 521,160 432,202" fill="#17233a" stroke="#6f82d8"/>
<rect x="365" y="122" width="30" height="50" fill="#26385d" stroke="#8aa4ff"/>
<path d="M371 132 H389" stroke="#93a4ed" opacity=".6"/>
<path d="M371 144 H389" stroke="#93a4ed" opacity=".6"/>
<path d="M371 156 H389" stroke="#93a4ed" opacity=".6"/>
<rect x="404" y="93" width="34" height="78" fill="#26385d" stroke="#8aa4ff"/>
<path d="M410 103 H432" stroke="#93a4ed" opacity=".6"/>
<path d="M410 115 H432" stroke="#93a4ed" opacity=".6"/>
<path d="M410 127 H432" stroke="#93a4ed" opacity=".6"/>
<path d="M410 139 H432" stroke="#93a4ed" opacity=".6"/>
<path d="M410 151 H432" stroke="#93a4ed" opacity=".6"/>
<path d="M410 163 H432" stroke="#93a4ed" opacity=".6"/>
<rect x="447" y="120" width="29" height="52" fill="#26385d" stroke="#8aa4ff"/>
<path d="M453 130 H470" stroke="#93a4ed" opacity=".6"/>
<path d="M453 142 H470" stroke="#93a4ed" opacity=".6"/>
<path d="M453 154 H470" stroke="#93a4ed" opacity=".6"/>
<path d="M453 166 H470" stroke="#93a4ed" opacity=".6"/>
<rect x="483" y="137" width="22" height="35" fill="#26385d" stroke="#8aa4ff"/>
<path d="M489 147 H499" stroke="#93a4ed" opacity=".6"/>
<path d="M489 159 H499" stroke="#93a4ed" opacity=".6"/>
<path d="M337 181 C380 165 405 179 441 158 C475 138 497 147 527 128" fill="none" stroke="#f2cc60" stroke-width="3"/>
<text x="26" y="83" fill="#f0f6fc" font-family="ui-monospace, SFMono-Regular, Menlo, Consolas, monospace" font-size="25" font-weight="700" text-anchor="start" letter-spacing="0">CoreAI Market Flare</text>
<text x="26" y="116" fill="#c9d1d9" font-family="ui-monospace, SFMono-Regular, Menlo, Consolas, monospace" font-size="14" font-weight="400" text-anchor="start" letter-spacing="0">ZIP-level real estate market</text>
<text x="26" y="138" fill="#c9d1d9" font-family="ui-monospace, SFMono-Regular, Menlo, Consolas, monospace" font-size="14" font-weight="400" text-anchor="start" letter-spacing="0">hotness forecasting system.</text>
<rect x="26" y="245" width="72" height="30" rx="8" fill="#161b22" stroke="#3b4658" stroke-width="1" opacity="1"/>
<text x="39" y="265" fill="#c9d1d9" font-family="ui-monospace, SFMono-Regular, Menlo, Consolas, monospace" font-size="12" font-weight="600" text-anchor="start" letter-spacing="0">Python</text>
<rect x="106" y="245" width="72" height="30" rx="8" fill="#161b22" stroke="#3b4658" stroke-width="1" opacity="1"/>
<text x="119" y="265" fill="#c9d1d9" font-family="ui-monospace, SFMono-Regular, Menlo, Consolas, monospace" font-size="12" font-weight="600" text-anchor="start" letter-spacing="0">XGBoost</text>
<rect x="186" y="245" width="72" height="30" rx="8" fill="#161b22" stroke="#3b4658" stroke-width="1" opacity="1"/>
<text x="199" y="265" fill="#c9d1d9" font-family="ui-monospace, SFMono-Regular, Menlo, Consolas, monospace" font-size="12" font-weight="600" text-anchor="start" letter-spacing="0">SARIMA</text>
<text x="544" y="281" fill="#8aa4ff" font-family="ui-monospace, SFMono-Regular, Menlo, Consolas, monospace" font-size="10" font-weight="700" text-anchor="end" letter-spacing="1">OPEN PROJECT →</text>
</svg>