<svg xmlns="http://www.w3.org/2000/svg" width="570" height="300" viewBox="0 0 570 300" role="img">
<title>Web Crawler</title>
<defs>
  <linearGradient id="bg" x1="0" y1="0" x2="1" y2="1">
    <stop offset="0%" stop-color="#0d1117"/>
    <stop offset="100%" stop-color="#111827"/>
  </linearGradient>
  <linearGradient id="blueGlow" x1="0" y1="0" x2="1" y2="1">
    <stop offset="0%" stop-color="#8aa4ff"/>
    <stop offset="100%" stop-color="#5470d8"/>
  </linearGradient>
  <linearGradient id="purpleGlow" x1="0" y1="0" x2="1" y2="1">
    <stop offset="0%" stop-color="#b5b9ff"/>
    <stop offset="100%" stop-color="#7487e8"/>
  </linearGradient>
  <filter id="softGlow" x="-50%" y="-50%" width="200%" height="200%">
    <feGaussianBlur stdDeviation="5" result="blur"/>
    <feMerge><feMergeNode in="blur"/><feMergeNode in="SourceGraphic"/></feMerge>
  </filter>
  <filter id="tinyGlow" x="-50%" y="-50%" width="200%" height="200%">
    <feGaussianBlur stdDeviation="2" result="blur"/>
    <feMerge><feMergeNode in="blur"/><feMergeNode in="SourceGraphic"/></feMerge>
  </filter>
  <pattern id="grid" width="24" height="24" patternUnits="userSpaceOnUse">
    <path d="M 24 0 L 0 0 0 24" fill="none" stroke="#233044" stroke-width="1" opacity="0.38"/>
  </pattern>
</defs>
<rect width="570" height="300" rx="18" fill="url(#bg)"/>
<rect x="1" y="1" width="568" height="298" rx="17" fill="none" stroke="#334155" stroke-width="2"/>
<rect width="570" height="300" rx="18" fill="url(#grid)" opacity="0.22"/>
<text x="26" y="31" fill="#b5b9ff" font-family="ui-monospace, SFMono-Regular, Menlo, Consolas, monospace" font-size="11" font-weight="700" text-anchor="start" letter-spacing="1">PROJECT 04</text>
<text x="544" y="31" fill="#6e7681" font-family="ui-monospace, SFMono-Regular, Menlo, Consolas, monospace" font-size="10" font-weight="700" text-anchor="end" letter-spacing="1">ACADEMIC</text>
<path d="M26 45 H544" stroke="#30363d"/>
<rect x="316" y="66" width="228" height="138" rx="12" fill="#0a1020" stroke="#2d3c57" stroke-width="1" opacity="1"/>
<rect x="336" y="83" width="24" height="27" rx="2" fill="#111827" stroke="#6e7d97"/>
<path d="M341 91 H355 M341 97 H353 M341 103 H350" stroke="#8b949e" stroke-width="1"/>
<rect x="373" y="83" width="24" height="27" rx="2" fill="#111827" stroke="#6e7d97"/>
<path d="M378 91 H392 M378 97 H390 M378 103 H387" stroke="#8b949e" stroke-width="1"/>
<rect x="410" y="83" width="24" height="27" rx="2" fill="#111827" stroke="#6e7d97"/>
<path d="M415 91 H429 M415 97 H427 M415 103 H424" stroke="#8b949e" stroke-width="1"/>
<rect x="447" y="83" width="24" height="27" rx="2" fill="#111827" stroke="#6e7d97"/>
<path d="M452 91 H466 M452 97 H464 M452 103 H461" stroke="#8b949e" stroke-width="1"/>
<rect x="484" y="83" width="24" height="27" rx="2" fill="#111827" stroke="#6e7d97"/>
<path d="M489 91 H503 M489 97 H501 M489 103 H498" stroke="#8b949e" stroke-width="1"/>
<rect x="336" y="118" width="24" height="27" rx="2" fill="#111827" stroke="#6e7d97"/>
<path d="M341 126 H355 M341 132 H353 M341 138 H350" stroke="#8b949e" stroke-width="1"/>
<rect x="373" y="118" width="24" height="27" rx="2" fill="#111827" stroke="#6e7d97"/>
<path d="M378 126 H392 M378 132 H390 M378 138 H387" stroke="#8b949e" stroke-width="1"/>
<rect x="410" y="118" width="24" height="27" rx="2" fill="#111827" stroke="#6e7d97"/>
<path d="M415 126 H429 M415 132 H427 M415 138 H424" stroke="#8b949e" stroke-width="1"/>
<rect x="447" y="118" width="24" height="27" rx="2" fill="#111827" stroke="#6e7d97"/>
<path d="M452 126 H466 M452 132 H464 M452 138 H461" stroke="#8b949e" stroke-width="1"/>
<rect x="484" y="118" width="24" height="27" rx="2" fill="#111827" stroke="#6e7d97"/>
<path d="M489 126 H503 M489 132 H501 M489 138 H498" stroke="#8b949e" stroke-width="1"/>
<rect x="336" y="153" width="24" height="27" rx="2" fill="#111827" stroke="#6e7d97"/>
<path d="M341 161 H355 M341 167 H353 M341 173 H350" stroke="#8b949e" stroke-width="1"/>
<rect x="373" y="153" width="24" height="27" rx="2" fill="#111827" stroke="#6e7d97"/>
<path d="M378 161 H392 M378 167 H390 M378 173 H387" stroke="#8b949e" stroke-width="1"/>
<rect x="410" y="153" width="24" height="27" rx="2" fill="#111827" stroke="#6e7d97"/>
<path d="M415 161 H429 M415 167 H427 M415 173 H424" stroke="#8b949e" stroke-width="1"/>
<rect x="447" y="153" width="24" height="27" rx="2" fill="#111827" stroke="#6e7d97"/>
<path d="M452 161 H466 M452 167 H464 M452 173 H461" stroke="#8b949e" stroke-width="1"/>
<rect x="484" y="153" width="24" height="27" rx="2" fill="#111827" stroke="#6e7d97"/>
<path d="M489 161 H503 M489 167 H501 M489 173 H498" stroke="#8b949e" stroke-width="1"/>
<circle cx="438" cy="140" r="43" fill="#0d1117" fill-opacity=".82" stroke="#8aa4ff" stroke-width="4"/>
<path d="M468 172 L507 205" stroke="#8aa4ff" stroke-width="10" stroke-linecap="round"/>
<circle cx="438" cy="140" r="18" fill="none" stroke="#b5b9ff" stroke-width="2"/>
<text x="26" y="83" fill="#f0f6fc" font-family="ui-monospace, SFMono-Regular, Menlo, Consolas, monospace" font-size="25" font-weight="700" text-anchor="start" letter-spacing="0">Web Crawler</text>
<text x="26" y="116" fill="#c9d1d9" font-family="ui-monospace, SFMono-Regular, Menlo, Consolas, monospace" font-size="14" font-weight="400" text-anchor="start" letter-spacing="0">Robust domain crawler with</text>
<text x="26" y="138" fill="#c9d1d9" font-family="ui-monospace, SFMono-Regular, Menlo, Consolas, monospace" font-size="14" font-weight="400" text-anchor="start" letter-spacing="0">trap detection and extraction.</text>
<rect x="26" y="245" width="72" height="30" rx="8" fill="#161b22" stroke="#3b4658" stroke-width="1" opacity="1"/>
<text x="39" y="265" fill="#c9d1d9" font-family="ui-monospace, SFMono-Regular, Menlo, Consolas, monospace" font-size="12" font-weight="600" text-anchor="start" letter-spacing="0">Python</text>
<rect x="106" y="245" width="72" height="30" rx="8" fill="#161b22" stroke="#3b4658" stroke-width="1" opacity="1"/>
<text x="119" y="265" fill="#c9d1d9" font-family="ui-monospace, SFMono-Regular, Menlo, Consolas, monospace" font-size="12" font-weight="600" text-anchor="start" letter-spacing="0">IR</text>
<rect x="186" y="245" width="72" height="30" rx="8" fill="#161b22" stroke="#3b4658" stroke-width="1" opacity="1"/>
<text x="199" y="265" fill="#c9d1d9" font-family="ui-monospace, SFMono-Regular, Menlo, Consolas, monospace" font-size="12" font-weight="600" text-anchor="start" letter-spacing="0">Parsing</text>
<text x="544" y="281" fill="#b5b9ff" font-family="ui-monospace, SFMono-Regular, Menlo, Consolas, monospace" font-size="10" font-weight="700" text-anchor="end" letter-spacing="1">OPEN PROJECT →</text>
</svg>